<svg width="36" height="36" viewBox="0 0 36 36" fill="none" xmlns="http://www.w3.org/2000/svg">
<path d="M2.5 27.43L-9.52713e-06 7.71571L8.19706 12.5499L18 36L2.5 27.43Z" fill="url(#paint0_linear_113_2318)"/>
<path d="M18 5L5.14286 -2.02113e-06L8.29558 16.3941L18 36L18 5Z" fill="url(#paint1_linear_113_2318)"/>
<path d="M33.5 27.4286L36 7.71428L27.8029 12.5484L18 36L33.5 27.4286Z" fill="url(#paint2_linear_113_2318)"/>
<path d="M18 5L30.8571 -2.02113e-06L27.7044 16.3941L18 36L18 5Z" fill="url(#paint3_linear_113_2318)"/>
<defs>
<linearGradient id="paint0_linear_113_2318" x1="-4.76357e-06" y1="21.8579" x2="18" y2="21.8578" gradientUnits="userSpaceOnUse">
<stop stop-color="#8C8C8C"/>
<stop offset="1" stop-color="#393A47"/>
</linearGradient>
<linearGradient id="paint1_linear_113_2318" x1="11.5714" y1="-4.42318e-07" x2="11.5714" y2="36" gradientUnits="userSpaceOnUse">
<stop stop-color="#4F4F4F"/>
<stop offset="1" stop-color="#1E1E2B"/>
</linearGradient>
<linearGradient id="paint2_linear_113_2318" x1="36" y1="21.8571" x2="18" y2="21.8571" gradientUnits="userSpaceOnUse">
<stop stop-color="#4F4F4F"/>
<stop offset="1" stop-color="#1E1E2B"/>
</linearGradient>
<linearGradient id="paint3_linear_113_2318" x1="24.4286" y1="-4.42318e-07" x2="24.4286" y2="36" gradientUnits="userSpaceOnUse">
<stop stop-color="#8C8C8C"/>
<stop offset="1" stop-color="#393A47"/>
</linearGradient>
</defs>
</svg>
